<svg xmlns="http://www.w3.org/2000/svg" width="32" height="32" viewBox="0 0 32 32">
  <g fill="none" fill-rule="evenodd">
    <path fill="#FFF" fill-rule="nonzero" d="M25.8758537 13.8524444L25.8729268 13.8524444C25.8484146 13.5011556 25.5502439 13.2231111 25.1829268 13.2231111 24.7991463 13.2231111 24.4881707 13.5253333 24.4881707 13.8979556 24.4881707 13.9136 24.4921951 13.9281778 24.4932927 13.9438222L24.49 13.9438222C24.552561 14.8344889 24.2481707 15.7123556 23.6628049 16.3825778 23.3437805 16.1827556 22.9910976 16.0344889 22.6186585 15.9452444 22.0263415 15.8069333 21.4065854 15.8211556 20.824878 15.9864889L20.8256098 15.9893333C20.5373171 16.0714667 20.325122 16.3274667 20.325122 16.6343111 20.325122 17.0072889 20.6360976 17.3095111 21.0195122 17.3095111 21.087561 17.3095111 21.1515854 17.2970667 21.2137805 17.2792889L21.2145122 17.2821333C21.5639024 17.1832889 21.937439 17.1747556 22.2893902 17.2568889 22.6420732 17.3415111 22.9669512 17.5168 23.23 17.7639111 23.4915854 18.0092444 23.6840244 18.3196444 23.7853659 18.6588444 23.8863415 19.0044444 23.8929268 19.3692444 23.8047561 19.7148444L23.8069512 19.7155556C23.7934146 19.7674667 23.7842683 19.8215111 23.7842683 19.8776889 23.7842683 20.2506667 24.0952439 20.5525333 24.4786585 20.5525333 24.8042683 20.5525333 25.0757317 20.3338667 25.1507317 20.0401778L25.1529268 20.0405333C25.1547561 20.0330667 25.1558537 20.0259556 25.1576829 20.0181333 25.1584146 20.0152889 25.1591463 20.0124444 25.159878 20.0096 25.2981707 19.4453333 25.2860976 18.8515556 25.1210976 18.2862222 25.0186585 17.9434667 24.8606098 17.6206222 24.6568293 17.3283556 25.5154878 16.3836444 25.9654878 15.1274667 25.8758537 13.8524444zM12.7717073 15.8190222L12.772439 15.8172444C12.765122 15.8140444 12.7578049 15.8112 12.7504878 15.8083556 12.747561 15.8069333 12.7446341 15.8058667 12.7417073 15.8044444 11.4604878 15.2263111 10.0109756 15.2195556 8.74182927 15.7639111 8.51829268 15.4848 8.2504878 15.2391111 7.94646341 15.0392889 7.44085366 14.7093333 6.85329268 14.5127111 6.24670732 14.4707556L6.24670732 14.4739556C6.2302439 14.4728889 6.2145122 14.4689778 6.19768293 14.4689778 5.81426829 14.4689778 5.50329268 14.7712 5.50329268 15.1441778 5.50329268 15.5004444 5.78865854 15.7895111 6.14865854 15.8144L6.14865854 15.8172444C6.51378049 15.8424889 6.86756098 15.9608889 7.17012195 16.1585778 7.47231707 16.3576889 7.71707317 16.6318222 7.87768293 16.9518222 8.03829268 17.2721778 8.11 17.6273778 8.08439024 17.9779556 8.05731707 18.3328 7.93512195 18.6769778 7.73060976 18.9720889 7.73060976 18.9720889 7.73060976 18.9720889 7.73060976 18.9720889 7.73060976 18.9724444 7.73060976 18.9724444 7.73060976 18.9724444 7.65597561 19.0805333 7.61207317 19.2099556 7.61207317 19.3496889 7.61207317 19.7226667 7.92341463 20.0245333 8.30682927 20.0245333 8.54646341 20.0245333 8.75792683 19.9064889 8.88304878 19.7265778 9.22256098 19.2369778 9.42560976 18.6666667 9.47060976 18.0750222 9.49768293 17.7052444 9.46036585 17.3336889 9.36304878 16.976 10.2579268 16.6172444 11.2943902 16.6314667 12.1797561 17.0378667L12.1804878 17.0360889C12.2704878 17.0773333 12.3703659 17.1025778 12.4764634 17.1025778 12.859878 17.1025778 13.1708537 16.8003556 13.1708537 16.4277333 13.1704878 16.1578667 13.0065854 15.9271111 12.7717073 15.8190222z"/>
    <path fill="#FFF" fill-rule="nonzero" d="M30.7263415,17.6878222 C30.7263415,16.3509333 30.3652439,15.0456889 29.6796341,13.8961778 C29.6829268,13.8097778 29.6847561,13.7230222 29.6847561,13.6366222 C29.6847561,11.0104889 28.189878,8.67164444 25.8228049,7.50328889 C25.8491463,7.2992 25.8641463,7.09297778 25.8641463,6.88568889 C25.8641463,5.13528889 24.9195122,3.55377778 23.3781707,2.6848 C22.6369512,1.06702222 20.9679268,0 19.1258537,0 C17.760122,0 16.6837805,0.542577778 16,1.50862222 C15.3162195,0.542577778 14.239878,0 12.8741463,0 C11.0320732,0 9.36304878,1.06702222 8.62182927,2.6848 C7.0804878,3.55413333 6.13621951,5.13528889 6.13621951,6.88568889 C6.13621951,7.09297778 6.15121951,7.2992 6.17756098,7.50328889 C3.81085366,8.67164444 2.31560976,11.0104889 2.31560976,13.6366222 C2.31560976,13.7230222 2.31707317,13.8097778 2.32073171,13.8961778 C1.6347561,15.0453333 1.27365854,16.3505778 1.27365854,17.6874667 C1.27365854,19.5128889 1.93804878,21.2433778 3.15195122,22.6140444 C3.05865854,22.9884444 3.01,23.3731556 3.01,23.7632 C3.01,25.5150222 3.98682927,27.1232 5.53146341,27.9815111 C6.02536585,30.3022222 8.49304878,32 11.485,32 C13.4745122,32 15.0835366,31.2021333 16,29.8929778 C16.9164634,31.2021333 18.5258537,32 20.5153659,32 C23.5069512,32 25.9746341,30.3022222 26.4685366,27.9822222 C28.0131707,27.1239111 28.99,25.5153778 28.99,23.7639111 C28.99,23.3735111 28.9417073,22.9888 28.8480488,22.6147556 C30.0623171,21.2437333 30.7263415,19.5132444 30.7263415,17.6878222 Z M15.1665854,27.1392 C15.1665854,29.1079111 13.7214634,30.3797333 11.485,30.3797333 C9.20426829,30.3797333 7.28682927,29.0606222 7.12036585,27.3767111 C7.11890244,27.3635556 7.11670732,27.3504 7.1145122,27.3368889 C7.18731707,25.7827556 7.94353659,24.2136889 9.88695122,24.2136889 C11.0360976,24.2136889 11.9708537,25.1221333 11.9708537,26.2385778 C11.9708537,26.6115556 12.2818293,26.9137778 12.6656098,26.9137778 C13.0493902,26.9137778 13.3603659,26.6112 13.3603659,26.2385778 C13.3603659,25.1356444 12.8130488,24.1546667 11.9686585,23.5381333 C12.8130488,22.9219556 13.3603659,21.9409778 13.3603659,20.8376889 C13.3603659,20.4647111 13.0493902,20.1628444 12.6656098,20.1628444 C12.2818293,20.1628444 11.9708537,20.4650667 11.9708537,20.8376889 C11.9708537,21.9548444 11.0360976,22.8629333 9.88695122,22.8629333 C7.81621951,22.8629333 6.31109756,24.1738667 5.86,26.2375111 C5.12317073,25.6309333 4.67756098,24.7299556 4.67756098,23.7635556 C4.67756098,23.3994667 4.7397561,23.0428444 4.86085366,22.7032889 C4.89817073,22.6115556 4.91902439,22.5116444 4.91902439,22.4071111 C4.91902439,22.1813333 4.82390244,21.9772444 4.6702439,21.8304 C3.55512195,20.7153778 2.94085366,19.2451556 2.94085366,17.6878222 C2.94085366,16.5671111 3.26317073,15.4755556 3.87341463,14.5308444 L3.87268293,14.5304889 C3.95353659,14.4056889 4.00109756,14.2584889 4.00109756,14.1002667 C4.00109756,14.08 3.99963415,14.0597333 3.99780488,14.0398222 L3.99817073,14.0398222 C3.98792683,13.9068444 3.98280488,13.7713778 3.98280488,13.6369778 C3.98280488,11.6028444 5.15536585,9.79377778 7.00585366,8.91235556 C7.57987805,9.72728889 8.43560976,10.2471111 9.595,10.4871111 C9.56426829,10.8060444 9.57817073,11.1296 9.64109756,11.4467556 C9.75817073,12.0284444 10.0307317,12.5713778 10.4295122,13.0172444 L10.4317073,13.0154667 C10.5590244,13.1576889 10.7445122,13.2497778 10.9537805,13.2497778 C11.3371951,13.2497778 11.6481707,12.9475556 11.6481707,12.5749333 C11.6481707,12.4053333 11.5815854,12.2524444 11.4754878,12.1340444 L11.4776829,12.1322667 C11.2384146,11.8648889 11.0745122,11.5381333 11.0046341,11.1896889 C10.9354878,10.8416 10.9618293,10.4796444 11.0810976,10.1436444 C11.2007317,9.80622222 11.4089024,9.50542222 11.6821951,9.27502222 C11.9587805,9.04284444 12.2953659,8.88391111 12.6557317,8.81564444 L12.6557317,8.81528889 C12.9758537,8.75484444 13.2173171,8.48177778 13.2173171,8.15324444 C13.2173171,7.78026667 12.9063415,7.47804444 12.522561,7.47804444 C12.4768293,7.47804444 12.432561,7.48302222 12.3893902,7.4912 L12.3893902,7.49084444 C12.3879268,7.4912 12.3868293,7.49155556 12.3853659,7.49155556 C12.3831707,7.49191111 12.3809756,7.49262222 12.3784146,7.49297778 C11.7853659,7.60746667 11.2307317,7.87022222 10.7726829,8.25457778 C10.4591463,8.51982222 10.1986585,8.83911111 10.0007317,9.1936 C8.94707317,9.00728889 8.31195122,8.56497778 7.93109756,7.77173333 C7.92597561,7.75324444 7.92085366,7.73511111 7.91463415,7.71733333 C7.84146341,7.44817778 7.80341463,7.16942222 7.80341463,6.88746667 C7.80341463,5.648 8.51353659,4.53511111 9.65646341,3.98364444 L9.65536585,3.98186667 C9.84487805,3.88942222 9.99268293,3.72871111 10.0654878,3.5328 C10.492439,2.38968889 11.6210976,1.62168889 12.8741463,1.62168889 C14.8687805,1.62168889 15.1665854,3.44035556 15.1665854,4.5248 L15.1665854,27.1392 Z M27.330122,21.8304 C27.1764634,21.9772444 27.0813415,22.1813333 27.0813415,22.4071111 C27.0813415,22.5116444 27.1021951,22.6115556 27.1395122,22.7032889 C27.2602439,23.0428444 27.3228049,23.3994667 27.3228049,23.7635556 C27.3228049,24.7299556 26.8768293,25.6309333 26.1403659,26.2375111 C25.6896341,24.1738667 24.1841463,22.8629333 22.1134146,22.8629333 C20.9642683,22.8629333 20.0295122,21.9544889 20.0295122,20.8376889 C20.0295122,20.4647111 19.7185366,20.1628444 19.335122,20.1628444 C18.9517073,20.1628444 18.6407317,20.4650667 18.6407317,20.8376889 C18.6407317,21.9409778 19.1880488,22.9216 20.032439,23.5381333 C19.1880488,24.1543111 18.6407317,25.1356444 18.6407317,26.2385778 C18.6407317,26.6115556 18.9517073,26.9137778 19.335122,26.9137778 C19.7185366,26.9137778 20.0295122,26.6112 20.0295122,26.2385778 C20.0295122,25.1217778 20.9646341,24.2136889 22.1134146,24.2136889 C24.0568293,24.2136889 24.8130488,25.7827556 24.8854878,27.3368889 C24.8836585,27.3504 24.8810976,27.3635556 24.8796341,27.3767111 C24.7131707,29.0606222 22.7960976,30.3797333 20.515,30.3797333 C18.2785366,30.3797333 16.8334146,29.1079111 16.8334146,27.1392 L16.8334146,4.52302222 C16.8334146,3.43893333 17.1312195,1.61991111 19.1258537,1.61991111 C20.3789024,1.61991111 21.507561,2.38791111 21.9345122,3.53102222 L21.934878,3.53102222 C22.0073171,3.72693333 22.1554878,3.88728889 22.345,3.98008889 L22.3439024,3.98222222 C23.4868293,4.53368889 24.1965854,5.64657778 24.1965854,6.88604444 C24.1965854,7.16764444 24.1585366,7.4464 24.0857317,7.71555556 C24.0791463,7.73368889 24.0736585,7.75217778 24.0685366,7.77066667 C23.6876829,8.56355556 23.052561,9.00586667 21.9992683,9.19217778 C21.8013415,8.83768889 21.5408537,8.51804444 21.2258537,8.25208889 C20.7692683,7.8688 20.2146341,7.6064 19.6215854,7.49155556 C19.6193902,7.4912 19.6171951,7.49048889 19.6146341,7.49013333 C19.6131707,7.49013333 19.6117073,7.48977778 19.6102439,7.48942222 L19.6102439,7.48977778 C19.5670732,7.4816 19.5228049,7.47662222 19.4770732,7.47662222 C19.0936585,7.47662222 18.7826829,7.77884444 18.7826829,8.15182222 C18.7826829,8.48035556 19.0245122,8.75342222 19.3442683,8.81386667 L19.3442683,8.81422222 C19.7042683,8.88248889 20.0408537,9.04142222 20.3159756,9.27253333 C20.5907317,9.50435556 20.7989024,9.80551111 20.9185366,10.1425778 C21.0378049,10.4789333 21.0641463,10.8405333 20.9953659,11.1872 C20.925122,11.5370667 20.7608537,11.8638222 20.5215854,12.1312 L20.5241463,12.1329778 C20.4180488,12.2513778 20.3514634,12.4046222 20.3514634,12.5738667 C20.3514634,12.9464889 20.6628049,13.2487111 21.0458537,13.2487111 C21.255122,13.2487111 21.4406098,13.1569778 21.5679268,13.0144 L21.5704878,13.0161778 C21.9689024,12.5706667 22.2414634,12.0273778 22.3589024,11.4442667 C22.4218293,11.1278222 22.4357317,10.8053333 22.4046341,10.4864 C23.5640244,10.2464 24.420122,9.72622222 24.9937805,8.91128889 C26.8442683,9.79271111 28.0168293,11.6017778 28.0168293,13.6362667 C28.0168293,13.7706667 28.0113415,13.9064889 28.0014634,14.0391111 C28,14.0590222 27.9985366,14.0792889 27.9985366,14.0995556 C27.9985366,14.2577778 28.0457317,14.4049778 28.1265854,14.5297778 L28.1262195,14.5301333 C28.7364634,15.4748444 29.0587805,16.5664 29.0587805,17.6871111 C29.0591463,19.2451556 28.4452439,20.7157333 27.330122,21.8304 Z"/>
  </g>
</svg>
