<svg xmlns="http://www.w3.org/2000/svg" width="32" height="32" viewBox="0 0 32 32">
  <g fill="none" fill-rule="evenodd">
    <path fill="#FFF" d="M4.89090909,16.5160838 L4.89090909,18.4523312 C13.2488347,16.5969874 20.4598784,11.3891872 24.8844299,4.15692632 L25.7422777,7.01713194 C25.8933214,7.51594203 26.4209644,7.79811395 26.9208014,7.64738058 C27.4206384,7.49664725 27.7033912,6.97008823 27.5523475,6.47127819 L26.1025631,1.68347676 C26.0367818,1.4536415 25.8881536,1.26453418 25.6928124,1.14242054 C25.4999458,1.02289111 25.2650061,0.972801398 25.0297043,1.01445754 L20.0820541,1.812911 C19.5665904,1.89609671 19.2162987,2.38053942 19.2996556,2.8949441 C19.3830126,3.40934878 19.8684526,3.75892082 20.3839163,3.67573513 L23.2525569,3.20296357 C19.1649069,9.86705554 12.5580566,14.6981057 4.89090909,16.5160838 Z"/>
    <rect width="2" height="6" x="9" y="21" fill="#FFF" rx="1"/>
    <rect width="2" height="25" x="3" y="6" fill="#FFF" rx="1"/>
    <rect width="26" height="2" x="3" y="29" fill="#FFF" rx="1"/>
    <rect width="2" height="10" x="16" y="17" fill="#FFF" rx="1"/>
    <rect width="2" height="17" x="23" y="10" fill="#FFF" rx="1"/>
  </g>
</svg>
