<?xml version="1.0" encoding="UTF-8"?>
<svg width="100px" height="40px" viewBox="0 0 100 40" version="1.1" xmlns="http://www.w3.org/2000/svg" xmlns:xlink="http://www.w3.org/1999/xlink">
    <!-- Generator: Sketch 49.2 (51160) - http://www.bohemiancoding.com/sketch -->
    <title>logo_bright Light</title>
    <desc>Created with Sketch.</desc>
    <defs></defs>
    <g id="logo_bright-Light" stroke="none" stroke-width="1" fill="none" fill-rule="evenodd">
        <g id="Group" transform="translate(2.200000, 1.000000)" fill="#FFFFFF">
            <polygon id="Fill-1" points="88.1377987 4.8 84 9.50548722 85.4622013 10.8 89.6 6.09438683"></polygon>
            <polygon id="Fill-2" points="78.4178474 0 77.2 6.03924019 79.1820227 6.4 80.4 0.36063639"></polygon>
            <polygon id="Fill-3" points="89.2 15.3885186 89.4664906 17.6 95.6 16.6117689 95.3335094 14.4"></polygon>
            <path d="M9.84714366,27.41735 C10.2407151,27.41735 10.6174331,27.3836236 10.9775401,27.3156802 C11.3291597,27.2564443 11.6936316,27.1421425 12.0703496,26.9725292 C12.4388227,26.8118689 12.7361232,26.557633 12.9620084,26.2103123 C13.1796489,25.8631142 13.2887722,25.4271236 13.2887722,24.9016047 C13.2887722,24.3854066 13.1043538,23.9280764 12.7361232,23.5297368 C12.3591627,23.1231802 11.9152732,22.8309255 11.404576,22.6530953 C10.8853915,22.4752651 10.3663282,22.38635 9.84714366,22.38635 L5.16223667,22.38635 L5.16223667,27.41735 L9.84714366,27.41735 Z M9.84714366,19.5024349 C10.8268286,19.5024349 11.5762634,19.2863406 12.095448,18.8545198 C12.6061451,18.4225764 12.8614937,17.9524915 12.8614937,17.4443877 C12.8614937,16.5975481 12.6105101,15.9834821 12.1080578,15.602067 C11.5971181,15.2210198 10.8436821,15.0303123 9.84714366,15.0303123 L5.16223667,15.0303123 L5.16223667,19.5024349 L9.84714366,19.5024349 Z M-2.42496285e-05,27.41735 L2.04725064,27.41735 L2.04725064,15.0558217 L0.0502937296,15.0558217 L0.0502937296,12.1338877 L9.84714366,12.1338877 C10.7430462,12.1338877 11.5510438,12.2312651 12.271379,12.4260198 C12.9914717,12.6210198 13.6317832,12.9214915 14.1930408,13.3281708 C14.7539347,13.7347274 15.1893368,14.2809726 15.4991258,14.9670292 C15.8087936,15.6529632 15.96387,16.453567 15.96387,17.3681047 C15.96387,18.9604821 15.1935805,20.1675198 13.6528804,20.98885 C14.2724584,21.1498783 14.8124976,21.4843217 15.2732405,21.9925481 C15.7336197,22.5006519 16.060141,23.0215104 16.2529255,23.5551236 C16.436859,24.0887368 16.5291288,24.5840858 16.5291288,25.0415387 C16.5291288,25.8970858 16.4077594,26.6423783 16.1648994,27.2775387 C15.9219181,27.9128217 15.603763,28.4210481 15.210434,28.8020953 C14.8084964,29.19185 14.3101665,29.5051991 13.7158081,29.7421425 C13.121086,29.9793311 12.5182402,30.1404821 11.9070284,30.2249821 C11.2958165,30.30985 10.6091882,30.3520387 9.84714366,30.3520387 L-2.42496285e-05,30.3520387 L-2.42496285e-05,27.41735 Z" id="Fill-7"></path>
            <path d="M18.6894676,27.7221632 L20.7241327,27.7221632 L20.7241327,20.0996255 L18.890497,20.0996255 L18.890497,17.4443142 L23.1859549,17.4443142 L23.5503056,18.8290594 C24.1110783,18.1769745 24.6974343,17.7281066 25.3086462,17.4825783 C25.9114919,17.2369274 26.5687781,17.1139179 27.2807472,17.1139179 C28.469464,17.1139179 29.5917368,17.5122575 30.6467169,18.3082009 L29.2526058,20.912616 C28.4905612,20.3706632 27.670075,20.0996255 26.7906622,20.0996255 C25.9114919,20.0996255 25.1786682,20.39605 24.5927971,20.9888991 C23.9981963,21.5817481 23.7008958,22.4287104 23.7008958,23.5296632 L23.7008958,27.7221632 L25.5222854,27.7221632 L25.5222854,30.3519651 L18.6894676,30.3519651 L18.6894676,27.7221632 Z" id="Fill-10"></path>
            <path d="M31.7018061,27.6713774 L33.4979761,27.6713774 L33.4979761,20.0742264 L31.7269045,20.0742264 L31.7269045,17.4189151 L36.5375458,17.4189151 L36.5375458,27.6713774 L38.2329586,27.6713774 L38.2329586,30.3519528 L31.7018061,30.3519528 L31.7018061,27.6713774 Z M33.7993384,12.5276651 C34.150958,12.1975142 34.5653841,12.0321934 35.0428593,12.0321934 C35.5453116,12.0321934 35.9763488,12.2018066 36.3364558,12.5404198 C36.6963202,12.8791557 36.8766162,13.3281462 36.8766162,13.8871462 C36.8766162,14.4378066 36.7006852,14.8823821 36.3490656,15.2209953 C36.0140569,15.5431745 35.6161205,15.7037123 35.1557413,15.7037123 L35.0929348,15.7037123 C34.5904825,15.7037123 34.1635678,15.534467 33.8119482,15.1956085 C33.4518412,14.8569953 33.2717877,14.4124198 33.2717877,13.8617594 C33.2717877,13.3027594 33.4477188,12.8580613 33.7993384,12.5276651 Z" id="Combined-Shape"></path>
            <path d="M44.0232242,26.4516708 C44.6847541,27.1123406 45.6435844,27.4428594 46.8995939,27.4428594 C48.0050133,27.4428594 48.9257716,27.0912462 49.6627179,26.3882651 C50.3912979,25.6854066 50.7554061,24.7790858 50.7554061,23.6694255 C50.7554061,22.5514255 50.3826893,21.6411802 49.6374982,20.9380764 C48.8924284,20.2438028 47.9713063,19.8962368 46.8744956,19.8962368 C46.3721645,19.8962368 45.8903244,19.9768123 45.4301877,20.1378406 C44.9609574,20.2986236 44.5424088,20.5316425 44.1740569,20.8364066 C43.8055838,21.141416 43.5125271,21.5350953 43.2948867,22.0179349 C43.0686376,22.5006519 42.9556344,23.04285 42.9556344,23.6440387 C42.9975862,24.8553689 43.353207,25.7911236 44.0232242,26.4516708 M40.6069366,20.8108972 C41.0005081,19.9725198 41.5280587,19.290633 42.1895886,18.7654821 C42.8427523,18.248916 43.5710899,17.8508217 44.3750864,17.571567 C45.1788403,17.3005292 46.0119363,17.1646425 46.8744956,17.1646425 C47.4437556,17.1646425 48.0341128,17.2282934 48.6453247,17.35535 C49.2565366,17.4909915 49.7632326,17.6943311 50.1650489,17.9652462 L51.5720124,16.1992085 L53.6820938,17.9144726 L52.1372712,19.7310387 C53.1671529,20.9423689 53.6820938,22.2466613 53.6820938,23.6440387 C53.6820938,24.7790858 53.472577,25.7488123 53.0540284,26.5533406 C52.6271137,27.3582368 51.9025348,28.0270009 50.8811404,28.5604915 C51.4754988,28.8234349 51.9778299,29.1450009 52.3882549,29.5262934 C52.7901925,29.9074632 53.0791268,30.3012651 53.2548153,30.7076991 C53.422259,31.1225953 53.5353835,31.4783783 53.5941889,31.7748028 C53.6525092,32.0799349 53.6820938,32.3846991 53.6820938,32.6897085 C53.6820938,34.4004349 53.0706394,35.7090198 51.8482156,36.6153406 C50.6171832,37.5216613 48.9217705,37.982916 46.7613711,37.9999632 L46.7111743,37.9999632 C44.6261913,37.9999632 43.010196,37.4791047 41.8628248,36.4373877 C40.7240623,35.4125953 40.1548023,34.0192651 40.1548023,32.2576425 L40.1548023,32.1434632 L43.1943719,32.1434632 C43.2360813,34.1929255 44.4334067,35.2346425 46.7865907,35.2687368 C47.9673051,35.2514443 48.9006733,35.0355953 49.5873015,34.6206991 C50.2655636,34.2142651 50.6049372,33.5789821 50.6049372,32.71485 C50.6049372,31.9866047 50.2699286,31.3767085 49.5999113,30.8855292 C48.9300153,30.3941047 48.021503,30.1486991 46.8744956,30.1486991 C44.6135815,30.1486991 42.9053164,29.5768217 41.7499428,28.4336802 C40.5858394,27.2902934 40.0040908,25.6937462 40.0040908,23.6440387 C40.0040908,22.6023217 40.2051202,21.6579821 40.6069366,20.8108972" id="Fill-16"></path>
            <path d="M55.4278367,27.74755 L57.361987,27.74755 L57.361987,14.7128425 L55.5658171,14.7128425 L55.5658171,12.0830406 L60.3387502,12.0830406 L60.3387502,19.159333 C61.4440483,17.9482481 62.7835977,17.3426443 64.3578836,17.3426443 C66.1498099,17.3426443 67.5104566,17.8762575 68.4399448,18.943484 C69.3695544,20.0105877 69.8342985,21.51405 69.8342985,23.4533802 L69.8342985,27.74755 L71.7432292,27.74755 L71.7432292,30.3519651 L65.5134997,30.3519651 L65.5134997,27.74755 L66.8823912,27.74755 L66.8823912,23.5296632 C66.8823912,22.3185783 66.6187977,21.4548142 66.0912471,20.9381255 C65.588916,20.4469462 64.8685808,20.20105 63.9308477,20.20105 L63.7926248,20.20105 C62.7376447,20.2265594 61.9086711,20.6077292 61.3058254,21.3445594 C60.7028584,22.0898519 60.4015567,23.0004651 60.4015567,24.0760311 L60.4015567,27.74755 L62.2729006,27.74755 L62.2729006,30.3519651 L55.4278367,30.3519651 L55.4278367,27.74755 Z" id="Fill-18"></path>
            <path d="M72.295951,17.546033 L74.6948455,17.546033 L74.6948455,14.2174198 L77.7091956,13.8871462 L77.7091956,17.546033 L81.2510963,17.546033 L81.2510963,20.1250613 L77.6463891,20.1250613 L77.6463891,25.8801368 C77.6463891,26.5069575 77.7972218,26.9812123 78.0985234,27.3030236 C78.3915801,27.6331745 78.8020051,27.7984953 79.3295558,27.7984953 C79.840253,27.7984953 80.3174856,27.6883632 80.7613751,27.4682217 L81.5652503,29.9837217 C80.7864735,30.305533 79.9867207,30.4874104 79.1661133,30.529967 L78.9276182,30.529967 C77.6547552,30.529967 76.6416057,30.1486745 75.8881697,29.3865802 C75.1007843,28.5733443 74.7032116,27.4046934 74.6948455,25.8801368 L74.6948455,20.1250613 L72.295951,20.1250613 L72.295951,17.546033 Z" id="Fill-20"></path>
        </g>
    </g>
</svg>